Coordinates
version=1
nRows=29
nColumns=22
inDegrees=yes

Units are S.I. units (second, meters, Newtons, ...)
If the header above contains a line with 'inDegrees', this indicates whether rotational values are in degrees (yes) or radians (no).

endheader
time	pelvis_tilt	pelvis_list	pelvis_rotation	pelvis_tx	pelvis_ty	pelvis_tz	hip_flexion_r	hip_adduction_r	hip_rotation_r	knee_angle_r	ankle_angle_r	subtalar_angle_r	hip_flexion_l	hip_adduction_l	hip_rotation_l	knee_angle_l	ankle_angle_l	subtalar_angle_l	lumbar_extension	lumbar_bending	lumbar_rotation
      4.01000000	      0.80432361	      3.37643042	     83.93035099	      0.71170359	      1.06228016	      0.13114504	     16.59834575	     -0.02252497	      2.37408115	    -14.76520394	      2.47472705	      2.88171033	    -10.11692210	      3.05841773	     11.66968820	    -20.04317109	     17.58274400	     -3.03896272	     -3.62765847	     -2.77383385	     -9.80131463
      4.02000000	      1.08242173	      3.37415098	     84.33069892	      0.71478319	      1.06270024	      0.12379772	     16.39657090	      0.34958196	      2.30723578	    -15.22598636	      2.11542314	      2.74952231	    -10.05170159	      2.60456252	     11.79804303	    -20.96979698	     17.30485038	     -2.48032640	     -3.49881107	     -2.44209973	     -9.87985283
      4.03000000	      1.36269397	      3.38775722	     84.74119392	      0.71781282	      1.06324210	      0.11644566	     16.17689788	      0.69745458	      2.12818722	    -15.68685001	      1.91986088	      2.70922580	     -9.93760354	      2.15569583	     11.91862783	    -21.99187714	     16.92456039	     -1.80381172	     -3.38446110	     -2.10718295	     -9.95509328
      4.04000000	      1.64464280	      3.41589372	     85.17583009	      0.72077827	      1.06386996	      0.10912923	     15.92455702	      1.02301946	      1.84400058	    -16.11802811	      1.87186611	      2.73442106	     -9.75773822	      1.70994020	     12.03955192	    -23.13255673	     16.45826753	     -1.05226368	     -3.28718690	     -1.77241159	    -10.04668930
      4.05000000	      1.92901682	      3.45587358	     85.64792781	      0.72366157	      1.06456546	      0.10187432	     15.62448835	      1.33301433	      1.46713438	    -16.48842670	      1.94420420	      2.76007583	     -9.50224717	      1.26374822	     12.17114043	    -24.39649020	     15.90104365	     -0.23100543	     -3.20751968	     -1.43814474	    -10.15160767
      4.06000000	      2.21349427	      3.50702091	     86.14987254	      0.72647246	      1.06530851	      0.09470910	     15.26647868	      1.63689256	      1.03435346	    -16.77071232	      2.08596334	      2.72753947	     -9.17080241	      0.81946157	     12.30777949	    -25.77619503	     15.24436506	      0.69181353	     -3.14499007	     -1.10872847	    -10.26075483
      4.07000000	      2.50088122	      3.56814014	     86.68216929	      0.72921053	      1.06608294	      0.08763263	     14.83865553	      1.94403163	      0.54694008	    -16.93711310	      2.25889925	      2.59977720	     -8.76601580	      0.37223236	     12.44647871	    -27.26033115	     14.48009244	      1.69799468	     -3.09747673	     -0.78266861	    -10.36245672
      4.08000000	      2.79138622	      3.64399559	     87.23295857	      0.73188646	      1.06687678	      0.08067527	     14.34406104	      2.26210354	      0.02364451	    -16.99382708	      2.43251383	      2.36819365	     -8.29791671	     -0.07629155	     12.58050632	    -28.83404484	     13.60015330	      2.78539900	     -3.07397408	     -0.45885344	    -10.45650160
      4.09000000	      3.09003244	      3.74101602	     87.79813087	      0.73449681	      1.06766978	      0.07385324	     13.78689260	      2.59813099	     -0.54105097	    -16.95787878	      2.62521252	      2.04760434	     -7.77828963	     -0.53096197	     12.70950482	    -30.48605244	     12.61651397	      3.92150358	     -3.08262571	     -0.13002391	    -10.54380942
      4.10000000	      3.37392403	      3.85195319	     88.34931829	      0.73709277	      1.06847784	      0.06713759	     13.16250324	      2.93683210	     -1.10875429	    -16.79718188	      2.75179871	      1.65288571	     -7.21449073	     -0.97138440	     12.79356962	    -32.18155831	     11.48714384	      5.17270966	     -3.10776369	      0.16881638	    -10.57470692
      4.11000000	      3.66364799	      3.98650983	     88.89927829	      0.73963041	      1.06927026	      0.06054077	     12.48370068	      3.29280864	     -1.71270145	    -16.56005099	      2.90993022	      1.22872551	     -6.61895146	     -1.41722502	     12.86076944	    -33.92134923	     10.27213456	      6.40309886	     -3.16397879	      0.47285199	    -10.58387710
      4.12000000	      3.95460900	      4.14212876	     89.42985520	      0.74214215	      1.07004249	      0.05407622	     11.76328457	      3.66706676	     -2.30959123	    -16.26093705	      3.07112755	      0.81284764	     -5.99639806	     -1.86378683	     12.90071344	    -35.68979971	      8.97405512	      7.58529922	     -3.24841850	      0.77486934	    -10.56592619
      4.13000000	      4.22970485	      4.31194739	     89.91851973	      0.74463752	      1.07080772	      0.04772541	     11.01273987	      4.04436749	     -2.86131776	    -15.90904988	      3.21170463	      0.41675481	     -5.35518404	     -2.28965925	     12.90779848	    -37.46165863	      7.59748143	      8.73287952	     -3.34884269	      1.05923788	    -10.48916963
      4.14000000	      4.49737729	      4.49614789	     90.37052709	      0.74709575	      1.07153935	      0.04151186	     10.25056196	      4.43023251	     -3.35812672	    -15.53984232	      3.37477567	      0.06344352	     -4.69508263	     -2.70211150	     12.89931453	    -39.24174162	      6.19203550	      9.75965498	     -3.46917542	      1.33859983	    -10.37129874
      4.15000000	      4.75140374	      4.68347697	     90.77792710	      0.74951336	      1.07223579	      0.03541657	      9.49069115	      4.81593724	     -3.79007539	    -15.15915775	      3.54061915	     -0.22627825	     -4.01674149	     -3.09050137	     12.88175985	    -41.01453741	      4.77927549	     10.57729550	     -3.59080060	      1.60785481	    -10.21440557
      4.16000000	      4.98211727	      4.86899365	     91.13550735	      0.75190334	      1.07289182	      0.02944629	      8.73961687	      5.19046597	     -4.15464155	    -14.76978111	      3.71561777	     -0.48041491	     -3.31967421	     -3.44435339	     12.85149264	    -42.77564471	      3.38690232	     11.21295489	     -3.70947866	      1.85296180	    -10.01446953
      4.17000000	      5.16558082	      5.04617960	     91.43046846	      0.75425808	      1.07351940	      0.02362512	      8.01617984	      5.52436831	     -4.43471513	    -14.39520470	      3.87537973	     -0.63018336	     -2.61033800	     -3.72741244	     12.81111617	    -44.50877904	      1.98524549	     11.55534847	     -3.82209093	      2.04563593	     -9.74467047
      4.18000000	      5.36371760	      5.21318520	     91.71581733	      0.75656005	      1.07406959	      0.01792168	      7.29947857	      5.88216518	     -4.69128616	    -13.99457086	      4.08533593	     -0.87376499	     -1.86846152	     -4.02281757	     12.78404465	    -46.24365217	      0.73757819	     11.81439395	     -3.91841145	      2.25560018	     -9.50298770
      4.19000000	      5.53061956	      5.36202797	     91.96102663	      0.75881921	      1.07455609	      0.01242270	      6.62778862	      6.21178910	     -4.87977618	    -13.61941053	      4.27749385	     -1.11759374	     -1.09319198	     -4.26683120	     12.75012263	    -47.96723045	     -0.46690697	     11.81287967	     -4.00724479	      2.43292567	     -9.23404154
      4.20000000	      5.68380394	      5.47915282	     92.18022560	      0.76105582	      1.07497451	      0.00707580	      5.99161563	      6.53155121	     -5.04153097	    -13.22608467	      4.45596059	     -1.35386766	     -0.27311649	     -4.49025592	     12.68955732	    -49.66815664	     -1.59433052	     11.47534406	     -4.06265015	      2.58876776	     -8.95445862
      4.21000000	      5.83181653	      5.57585169	     92.37835483	      0.76326236	      1.07533536	      0.00188989	      5.37916714	      6.84908207	     -5.17456708	    -12.81504324	      4.61565901	     -1.55390084	      0.57878431	     -4.70661868	     12.59964086	    -51.33725945	     -2.61546966	     10.89633246	     -4.10018538	      2.73620744	     -8.66599316
      4.22000000	      5.95893681	      5.65759264	     92.54450536	      0.76547380	      1.07565346	     -0.00311014	      4.79664914	      7.14679780	     -5.29256420	    -12.40911242	      4.76313848	     -1.74356438	      1.45180826	     -4.90462042	     12.46091097	    -52.95683191	     -3.53504753	     10.08107085	     -4.13523364	      2.85085859	     -8.35570936
      4.23000000	      6.12125857	      5.72100970	     92.70083406	      0.76767478	      1.07590101	     -0.00796191	      4.22882220	      7.48624496	     -5.38515133	    -11.97024213	      4.88840636	     -1.91674143	      2.35655752	     -5.15698191	     12.29069526	    -54.52543008	     -4.25199741	      9.16780376	     -4.15367534	      3.00198122	     -8.05789965
      4.24000000	      6.30713412	      5.76678798	     92.83782561	      0.76989676	      1.07608238	     -0.01264785	      3.68423593	      7.85581053	     -5.44287808	    -11.51539733	      5.00010989	     -2.07592417	      3.28463472	     -5.45582396	     12.08344762	    -56.02174115	     -4.73413970	      8.18483863	     -4.16255324	      3.17231825	     -7.76055809
      4.25000000	      6.49500037	      5.80170667	     92.94831314	      0.77213876	      1.07623463	     -0.01718538	      3.16733739	      8.22747489	     -5.50253466	    -11.07102475	      5.07295587	     -2.22004199	      4.21971968	     -5.78578630	     11.82178185	    -57.41692248	     -5.05030400	      7.14060637	     -4.16831063	      3.33637408	     -7.44003675
      4.26000000	      6.70147749	      5.82428010	     93.04024080	      0.77438616	      1.07634442	     -0.02156154	      2.67716549	      8.62004448	     -5.52620049	    -10.63152437	      5.12742063	     -2.34521732	      5.16077075	     -6.15675549	     11.54192022	    -58.70801457	     -5.12146256	      6.10246585	     -4.17180470	      3.51663305	     -7.10679412
      4.27000000	      6.91597488	      5.84129144	     93.11272569	      0.77662760	      1.07643577	     -0.02580061	      2.20560479	      9.02062587	     -5.51951288	    -10.19974930	      5.15963772	     -2.44860018	      6.09138796	     -6.55447955	     11.24818505	    -59.87862644	     -4.96604923	      5.11026739	     -4.17717140	      3.70272115	     -6.75117459
      4.28000000	      7.13328924	      5.86127002	     93.15569104	      0.77888576	      1.07652271	     -0.02992639	      1.74640694	      9.42352683	     -5.49461234	     -9.78589149	      5.20069250	     -2.53541931	      6.99090964	     -6.98251903	     10.91540431	    -60.91554503	     -4.55881112	      4.13397065	     -4.19249340	      3.88912085	     -6.40231458
      4.29000000	      7.32734538	      5.88860531	     93.18112705	      0.78108696	      1.07662935	     -0.03392930	      1.29816434	      9.79619336	     -5.45094725	     -9.39997211	      5.23427779	     -2.60398687	      7.84297926	     -7.38192286	     10.59508856	    -61.80721082	     -3.92602718	      3.19518444	     -4.22477328	      4.05183838	     -6.02627668
